/* XPM */
static char * info_shape_xpm[] = {
"153 67 44 1",
" 	c None",
".	c #C1C1C1",
"+	c #C1C1C2",
"@	c #C1C2C1",
"#	c #C2C1C1",
"$	c #C2C2C1",
"%	c #C2C2C2",
"&	c #C1C2C2",
"*	c #C2C1C2",
"=	c #C3C2C2",
"-	c #C2C3C2",
";	c #C2C2C3",
">	c #C3C3C2",
",	c #C3C2C3",
"'	c #C3C3C3",
")	c #C2C3C3",
"!	c #C4C3C3",
"~	c #C3C3C4",
"{	c #C3C4C3",
"]	c #C4C4C3",
"^	c #C3C4C4",
"/	c #C4C3C4",
"(	c #C4C4C4",
"_	c #C5C4C4",
":	c #C4C5C4",
"<	c #C5C4C5",
"[	c #C5C5C4",
"}	c #C4C4C5",
"|	c #C4C5C5",
"1	c #C5C5C5",
"2	c #C6C5C5",
"3	c #C5C6C5",
"4	c #C5C5C6",
"5	c #C6C5C6",
"6	c #C6C6C5",
"7	c #C5C6C6",
"8	c #C6C6C6",
"9	c #C6C7C6",
"0	c #C7C6C6",
"a	c #C6C6C7",
"b	c #C6C7C7",
"c	c #C7C7C6",
"d	c #C7C6C7",
"e	c #C7C7C7",
"...................................................................................................+.@..@+.....#.........@...+.$.@..@.#...+.@%.&.@.#$.+.*",
"...................................................@........@.............##....@...+#.@%#............+.@..@.#+.......@##*##........+.*#....$.+$#@+@@..@#",
"...............................................+........@...@##....+.#@.@#..+..#.@.@&@.#.$&*$@..#+.#...+$.#...+@@&.#@@.&+&.*.*#..+%@#$&&@++@+*#+*#**+$@*&",
"....#.@...........$..*...@+....+...$++..#..++..#.*..@#@.#@@..$+*.@.$++@%.++#*&@.#++@+.$.@@....%@.*#.*.+@.#$+..&@.+.$#+%#..+*&+#%@%@*+*#&$$$+#$#$$@#&+*#@@",
"@+.+..++@..$+...#..+..++.#.#*+.$+*.*...&@#+.&+.&+@...#..+@#.+.#...+.*.*%..#+*@+@+..&&.++%%.&*@&##+...&..#$$$**&@#$#.#+$&.#@$#*+@&#+%**$@&.%%&##&&*##$&$&&",
"+..@#.+.&&.&.*&.@+#@$++*+#++.*%+#..@+..*&..&.#+#*.$$%.@&&++$+..$$@%.*.+%#$@$&@&#+*#%*+&&$@#++%#.+*@$@&*%&&$&$@@&&..$@@++&*#+%%*%%#%%%&$&***++$+%@%#&#&%**",
"#&@@#..+@@&&#$+&@.#+.#.*@@%$**@@.$#&%...+&*$@*$#$.$..&@.@%.%+&@#+&#%+*&@#%$$&#%%+*%&&$%#+#&.$@*&%%@*$$%+%%%&&++&*+@*%&@*%&%$*%#*$#$%*$%&$%+%%%%%%&&$&%*%*",
"%.++@#..@.#.$****.%%.%&&&*##@$*$%%#$$#++$.$*+&+&%*&@$+@$+$%@#%$%$@$$&*+%+*#&$$%&*%%$*$&$%$%.%$&&%$%&%#&&%%.*%$$$#%#+%$&$&&%$%%%%&%%**@%@+$$*#*&*$%%*%+%@%",
"%*@.+*.$***+&%%$*%@@##%#%%#%&&&%$*%&%*%#%++..$%%$+%%@&.%%%#&$%#*#%%#+.**%%%$%$%%%%%%&*%&%%%%%&.&%&@%%$%&%%%%%%%%%%%$%%$%%%%%%%%&%*%%%%%%%@%%%%%&%&%%%$&%%",
"*@@@&#%%#+@&@*$&%$*%@$%.%%&&$&%*$&%*%&$#%%&@%#&*%+%*&&%%%%*%%%%%%&%%%%&&*%%%%&*%%*$$%%%%#$%%%%%%%%%*%%*&%&%%%*%%%%*%%%%%%%%%%%%%%%%%%%%%%%%%=%%%%%%%%-%%%",
"%*%*@$+$$*+%#%%$&&$%&*&$%%$&$+%%$%#*$&%%%%%&*%*$#%+&%%*$%%$#&%$%#%%%%%%%%%*%%%%*%%%%%%%%%%%%%%%%%%%%%%%%%%%%%%%%%%%%%%%--%%;%;%%%%%%-%%;%-%%%%%==;%-;%%%=",
"&*$%*&%*%$%%%%%&%$#%%%*$&%%&%%&%@%%$%&%%*%*%%%%&%*%$%%%&%%%%%%%%%%%%%%%%%%%%%%%%%%%;%%%%%%;-%%%-=%;%>%=%%%-%%-;,%==%%-%%%;;%-%-%%;-%=%;,%;%=;-%=%%;;%'%%-",
"%%%%%$%%%%%%%%%$%%*%*%%%%%%%%%%%%%%%%%%%%%%%%%%%%%%%%%%%;%%%%%%%%,;=%=%%%%%)%=%-%%%=%;%%;%%%-%%;%%%%-%%;'%%%%;=%%%%;%%>;%=--%;;%-;%-)'),-%====%=%=%=;--=-",
"%%%%%%%%%%=%%=%%%%%;=%%-%%%%%%%%%;%%;;%%%%%%%%--%%;-%-%>=%%%%=;%-%-%=%;%=%;%-%%;%%%%%==%-=%%--='%%;-%>=-%-;-%-==----),))%-=,;>''%=)=>%,;,-%=--;-'-)=;%;;=",
"%=%%%%%%%%%-%%%%%%,%%;%;=;%%%%%%%;%=%=;,;%-=->%;%%%%%=%%%%;%;-;%==-=%',%%==%=,,;,%%%-)=%%)%-;==,=;%,)-%;-,-,>%=-;,)-''';%--)>)=-)'>';%)%%=',;;%,-',-)';,)",
"%%%=%%%)%%)%-%%%-;=)%;=%=-%>=;,==%,'=;%%';%;=%%=%;%'=%-%-=>,';;-%)-;-;;%=%)===;-';=;;);>;-,>%>-%;%=)>>'=>>>>,);;>'>;==',%>>;%>')'--=-;>>%'''),>''';''')=)",
",-,>%%%%===)>,->%-%)%,%)%);%;;%%%-=>%,>%)%>,,%%,,=;)'>=,';-'-->--=>;),-,%,--=='',;%)-'=-,>);)'=;;>-'%=',-;-''%;,)==%>%;'-=;>>','>')='>;'';=,,',')>-,>'=''",
"%;)%,'%;%;)%%>);)>,,==));)-;,,,'>';>->;'))-;'%=;)'>;-==-->,,>')='))';>-=)=;''->');;)>==));-,%));-)%>,'))))),'%'%-'''>>;=)>',;''>'>)->')'>=')')=)''''''')'",
",->))>=;)=%);,'=;>;)='),%')',;,>)));;),-'))>-;;);))'=;)''%=)=>),'''>=,=)-))',;-)%)%'=>')'')>>->,->')''=)>,'''--=';>',''=''>')';)'=',),>')'''''')'''''''''",
")=-))='))-',)=>','>;'==-,%,-'')'%>'-''-=,>>,-,,)-)';;)>='-'>',=,)'>,'''),=')''''',));',',,''''''),'''''),'''>,';')''''''''''''';)''''''''''''''''''''''''",
"''')=%''>))'>'>;)))'>',)=,''>'>'',',>)>>,'-,'>'''',=''';','''')'''''')'''>''',>,''''''>''',','''')'''''')>'''''''''''''''''''!!'!'''''''~''!''''~''''''~'",
"'>')>')'''=>,-')';'''')''>''',''>''''='')',','''->''''''''','','''')''''''')'')''''''''''''''''''{''''!'''''!'''{''''''''''''''!']''!'''''!''!'''''~~~'{{",
"',>'>''''',',,''''>;)''>'','''','>)'''''''''','''''''''''''''''''''''''{''!''''^'''''{'''''''''''''/{'''{~''''('''!{~{]'~{''''~''''''^'!''~'('!^!/]~!]/~/",
"''''''','''''''''''''')'''''''''''''~''''''''''{'''''''''{'{''{'''!'''~'''!'~~!'{{''!{''~~''!{/!{{']~'/~'~]'~'!~(^']{{''^{{!!']~'!/'/{({{~~^^'/~~^//{!/~~",
"'''''''''''''''''''''''''''{'''''''''{'!'''''(!'~'/'''!^'''''{'~~'']!{{!'''^'{]{'''!!^'~'''''{^'^'^'^''''!]{'!!'/~'/'!~!({~'~^]^'!'~'!!''!{]'{^{{{^/{^'//",
"~''/'~'{/''''!!'{~{{'~'~!~^^]!''{{{~'{^{'!{!^''!!^^]'^{'~~!'~~!~!(!''''~~(~/''']'~(~{'(]~^]/{/'/{/{({('^](^]']]^{^^(!!'{(//(~/'((!'(//~!!'{!/(((~'{{{^^{/",
"'~/^'''{'''/!''~]'~/{{{/~~']''{~/!~!'/^!~/!{'/{(^(]!{~{/'''~!'{^!{{~~^'!'~'!{{!/!{{']!!'!](/]]^^/](~^{]!{~~^~^{'(~^~(](]^~/^/]'~!^{/~({~!{!^{]/!'^](]^^/^",
"'(~^{{]!!(~!'^]!''{/!!(~{{]]!{!{^^]{((~!'{~(~(''{^]~^(~~!/^]^(^~^!{^~/{{](!(!~'^('/]~{~^(^/]{~^](^((!/!/((('/!^^^'!]]/(]((]^/(/(((((^~(]]((/(/~^('^^^^//(",
"^'^/{'~/!'!^/^^{^(/]~{^/~']'~(^/'/(!^/{^((~~^!({({~{{'^~(~~]^!(^]^^](/~]((^~^!^]((!](!~^^](((!(!/(]({{](^/]~(/(~(({((//]^(](^((^(^{/{/(]^(((^(](((((//]((",
"!^~'~!{/]{~{/~]({/^(''!^^(!{^~({^'(^^~]!]/'(~'{^]~/{(!~^(((/(/^/(!!'^^^!{^]]^]^(/((/^~(^(((/]/(((]{^](((!]((^^^(((((((/]((((](^/(]/](((](((((((//](/((((^",
"/](({^/]'!'(!^(~!^(!({^]]~(!{/]]]{~]/(^(/](](!(]/](/((^]]((^(^((]({{((/^/]'{^(((((((((((]((((]/(](((((((((((((((((((((((/((((((((((^(((((((((((((((((((((",
"{]/!(!(~(^/(^]!(]((^(^]/(^(!({/((]{^(^](/]((^/](](^(((]^(((((/](({^(((//(((^((((((((!^((((/(((/(((((((/((((((/(_(((((((((((((((((((((((:(((((_(((((((<(([",
"/(((]{/((^/((^{{(((~(/^((/((^](]((/((((((/((((((^/](((((]((((((((](/(((((((((((((((((:((((((((((((((:__(:((([[(((((((((:(((((::((}[_}(_((__((_(}|(}_(_}((",
"///((/((((((^(((](((](((((((((((((((((((((((((((((((:_(((((((((}(((:(((((((((((((_}(((_((}((_(_((_((_(((}(((_(((:(((:|(:((}_:(((_(1(:|((_:([_1}_(((::|(1}",
"((((((((](((((((_((_((((((((((_}(((:(_[(_}((((((((((:((((:(((_((:(:(((((_|(}(:::((}|_|((_|:}((__}|}|[([:([<_}((<:<((((|:((::}(((_(:(<<(((}_<}||[:|::}__[<",
"(((((((((((((:}(_((((((((_(}(:((}(_(:<:(:|(}(((((((_::(}:((|(}[(::(((}((((_(::(((_((((<:1}:([((}(:}[|((<}:1_<}:1(|}((((}__:_:|_|(||(::|(}:1(|<[}_:__||1}}",
"(}(((:(((((__(((((<<(_}_[(<_}::([_<:(}|:(}}(}(}<}}1[(((<}:(1:(}[_}<<((::|:(:|:<}<11<<}|(:<:|<_(_|(}}1(:(<<}}:||:<1(1|1(_(_<:[}|<(:111|1|(}|1:|1|:[1_1_<11",
"}(((__((_:(}__}|((1}(}(_:((_((:(_}:}___:<::[_<:__|(_[(:(:1:1[_:}}:1_::___:(1<}1:<1}1(<_[|(|}}<<<1_<_|(<_<[}<|_([[11|1<|(1_<[1<11||[1|}1[|1_[<[}<}11<<[:1<",
":}(}}|<}1(((:(<}(:|_<(:(_(}(:<[||(__<(1(_}|1[1(}1}1<:<}|_1}|}[:::[111}:_}1[}11_[|[_1([<[}<[:}_1|(}[<<|_[[:1_:<1(111::[<[[1<:(1<}|[1[1[11_1[1[1111[:1<1[|1",
"_((:|1(}1|:_1|:::1||[_[}_:1|[[1(:1<__(:|<:[|_1<|_|[_1}<:[::[|<_[|111|_:1(1(1:||}}1[1|:|1|<1:1|<_11111<:|[||:[<[1_<<1[1<11111[:<|1:11[1[1[1111<1|1:11<<1[1",
"|1(1|:<1[1||[[::}(||[}__<<:_}|1}_:|[(<|<1<__1<}<11[1_11<111<[1}1|1<||11}<[1<:[1|:[1111[1[<11}|111<:1|1|111<<1|<1}1111111|1<[1}<11|11[<1111111111111111<11",
"[|1[1(111}[<[|:[:<1[[1|[[[<}11_11[:}}11|<1<|11:1<1[(111|[<1|1111_1|1111[111|}}}[11111111}1[11|11[11111111111[11111111<11111111111111111111111111123111111",
"111|<}}11[11}1|1<1:11|<1[11_}11<:|[|11[[}111|11[11[<11[11<11|1[1111[11111|11|1111[11111111111111111111111111141131131111111111111111251112122412111111511",
"11}111[[_1_111[11[1111111|1111111||1[1111111|1<1111111<11<<1111111111111111121121231114111111111111111111111111611311112213761131441173111122111356212435",
"11|111|11|111[111111}11111<111111111111111111111111251241111111211411114121611113111432413131212131811114211247233224254111131174133332413313121135314151",
"111111111111111311111111413142211111121111321113211131143121114141134123113111154163211111441635113233124514174121552121174148411135117417831257161264431",
"111411414111112114311113111411111622333222311611314224543332127243131211241671111221342211361148148423262361737114144114566266742241718362266274244636283",
"113314123411515111214213243814722315112222426214621231224737214111128311137286123373473874346264412584176155788666145832588818436838555565183247778183235",
"442843652321113116224413232538134317515525432431487114631784661264157433481688454374672311872241875472688758238128568272725765278788887648442682733286187",
"341637325261763544241814271512874784885567686412862664414411718417252351876726158768253754827348856774582587868683845675527855777875587724685885568238865",
"443411768487143432812255272721744258585685577216768324685586854288641846884785767465456828858768586776888683476558886888388685886678481886882888888886888",
"674217665658558848882357888868654868575888878852887886487886888875878588724657386658685837557788788866883478588687528888887888888885888888888888888888888",
"587851618866545523876828486558783218585816867443886666887888868577868588687788885668585878888888886888888888888588888888888888888888888888888988888880088",
"8556868775676888775546887888788888658854876888287858878867687848888888885885888888888888888888888888888888888a8888888888888a088808908888888a889b8a88c9888",
"87888838888837683868888888887888878858688888688888888888888888888888888888888a88888888888888a88c88880880888aa8a8d88888b988099889a88888ac888890909b080890e",
"8866788888888888888888888888888888888888988088988889a88a8888888c888898888888088d8e8a8a8c9888aa9988a0a88aa88889988c88899889d09d89e80ad00898a890de988889a8a",
"8888888898888890888898890888d888080a0a8a8b8980898888a8008888b88080cd88b890ba8888c9888a90808898889a9a888b8a8bc0c89aa8a0b888e88ba9bc80a88abaadd8a880dd9b90b",
"8a888a88880a8888080880a8888aa988a88aeac88c88c088bb9da888888008088880ca9888baacabadeb8898009080cb8ca08bccadb08999b0dcaddee0d9bb080bcc8ecea8e98eeaebca0eac9",
"880889a8a88d8aaa9d0aa808c8dde808889808c98c9bd889baaa880b00a8988bb8ab0edac9eeca88da09aa00a8abbbcbc9b0ddd089e98009abec80b0aeb0aa99beb9e09c9be8cbb0bdeeabce8",
"9a88ddcabbcd80cac98a9a808a80d9a8bbe8908a8e8a0909d9c9d009d99ad008e88ecac98a0ee08cec9aaac8b0aeed008ddca0eeeedaeab0acaab909cddc8be0dccee90cddb0d9ebce8deeaee",
"8a0c0cca08888809b9ab0c99a8ae08a8acbd9dbab088edcbcae0b0c9d8aea88cb9cbaccebeedcea999ccee09d0acae9bdbceddc00cebceed0e0eedecedeeeeecaec9beedece9eceeecbcdcdee",
"9808bec8ecc9a09d8ee9bbbebee9bc8bee9de8bdbcedebe0edaeae0ece8ed0eb0c9e09ee0ebbbe9eeeedcce8bbe0bedeccedcbeceeeee0bddeeeede9deeeceeebeeeeeeedce0ecededbbeeecc",
"ca0d0baeed900cee09bce9aa9b0dcc0daed0ae0ecde9deecdddebeceeedeceddeeeeedeeeecdeeeeeeeec0eeebeeeedeeceedeeeeeeedeeedeeeeeeeeeeeeceeeeeeeeeeeeeeeeeeeeeeeeeee",
"eec9abbbeaeee9ee9eec8eeeeeeeeeddcebeeeceee9eeedeecbeeeebac0ecddecedeccdeeeceeecdeedeeeeeeedeeeeceeeeeeeeeeeeeeeeeeeeeeeeeeeeeeeeeeeeeeeeeeeeeeeeeeeeeeeee",
"ecbaebeeccd0eeeedeeceee0ceeceeeeedeebeeebcdeeeecbeeeeaeeeeceeebeeeeeeeeeeeeeeeeeeeeeeeeeeeeeeeeeeeeeeeeeeeeeeeeeeeeeeeeeeeeeeeeeeeeeeeeeeeeeeeeeeeeeeeeee",
"cdededbddeeeeeedeeceeeebeee9deeeeeeeeebeeeeeeeeeeeeeeeeeeeeeeeeeeeeeeeeeeeeeeeeeeeeeeeeeeeeeeeeeeeeeeeeeeeeeeeeeeeeeeeeeeeeeeeeeeeeeeeeeeeeeeeeeeeeeeeeee",
"bebeeeeeeeceedeeeeeeeeeeeeeeeeeeeeeeeeeeeeeeeeeeeeeeeeeeeeeeeeeeeeeeeeeeeeeeeeeeeeeeeeeeeeeeeeeeeeeeeeeeeeeeeeeeeeeeeeeeeeeeeeeeeeeeeeeeeeeeeeeeeeeeeeeee"};
